# Blender v2.75 (sub 0) OBJ File: 'box02.blend'
# www.blender.org
mtllib box02.mtl
o Plane.001
v -17.600000 16.000000 0.000000
v -17.600000 -16.000000 0.000000
v 17.600000 16.000000 0.000000
v 17.600000 -16.000000 0.000000
v -17.600000 16.000000 32.000000
v -17.600000 -16.000000 32.000000
v 17.600000 16.000000 32.000000
v 17.600000 -16.000000 32.000000
v -17.600000 0.000000 32.000000
v 17.600000 0.000000 32.000000
v -17.600000 0.000000 0.000000
v 17.600000 0.000000 0.000000
v -17.600002 11.823099 47.660950
v 17.600000 11.823092 47.660957
v -17.600004 -11.858890 47.454811
v 17.600002 -11.858885 47.454815
v 0.000000 15.999998 32.000004
v 0.000002 -15.999998 32.000004
v -17.612093 15.999998 31.988737
v -17.612093 -16.000000 31.988737
v -29.606689 15.999996 44.868553
v -29.606691 -15.999998 44.868557
v 29.660381 15.999998 44.818237
v 29.660381 -15.999998 44.818237
vt 0.435218 0.217012
vt 0.435218 0.000059
vt 1.000000 -0.000065
vt 0.435218 0.701057
vt 0.000146 0.700980
vt 0.999902 0.216983
vt 0.999902 0.701027
vt 1.000000 0.216889
vt 1.000000 0.700933
vt 0.000146 0.216936
vt 0.999902 0.000030
vt 0.435218 0.920778
vt 0.717536 0.701066
vt 0.999902 0.920749
vt 0.717633 0.700971
vt 1.000000 0.920654
vt 0.000000 0.920898
vt 0.000000 0.000000
vn 0.000000 0.000000 -1.000000
vn -1.000000 0.000000 0.000000
vn 0.000000 -1.000000 0.000000
vn 0.000000 1.000000 0.000000
vn 1.000000 0.000000 0.000000
vn 0.000000 -0.965900 0.258800
vn 0.000000 0.966200 0.257700
vn -0.731800 0.000000 -0.681500
vn 0.728300 0.000000 -0.685200
g Plane.001_Plane.001_models/mapobjects/vega/box/box02
usemtl models/mapobjects/vega/box/box02
s off
f 3/1/1 12/2/1 11/3/1
f 2/1/2 6/4/2 5/5/2
f 4/6/3 8/7/3 6/4/3
f 1/8/4 5/9/4 7/4/4
f 7/4/5 8/5/5 4/10/5
f 12/11/1 4/6/1 2/1/1
f 15/12/6 18/13/6 16/14/6
f 14/12/7 17/15/7 13/16/7
f 21/17/8 19/5/8 20/4/8
f 23/18/9 24/2/9 8/1/9
f 1/8/1 3/1/1 11/3/1
f 1/10/2 2/1/2 5/5/2
f 2/1/3 4/6/3 6/4/3
f 3/1/4 1/8/4 7/4/4
f 3/1/5 7/4/5 4/10/5
f 11/2/1 12/11/1 2/1/1
f 18/13/6 15/12/6 6/4/6
f 18/13/6 8/7/6 16/14/6
f 17/15/7 14/12/7 7/4/7
f 17/15/7 5/9/7 13/16/7
f 22/12/8 21/17/8 20/4/8
f 7/10/9 23/18/9 8/1/9
l 5 9
l 10 7
l 8 10
l 9 6
