# Blender v2.75 (sub 0) OBJ File: 'box01.blend'
# www.blender.org
mtllib box01.mtl
o Plane
v -17.600000 16.000000 0.000000
v -17.600000 -16.000000 0.000000
v 17.600000 16.000000 0.000000
v 17.600000 -16.000000 0.000000
v -17.600000 16.000000 32.000000
v -17.600000 -16.000000 32.000000
v 17.600000 16.000000 32.000000
v 17.600000 -16.000000 32.000000
v -17.600000 0.000000 32.000000
v 17.600000 0.000000 32.000000
v -17.600000 0.000000 0.000000
v 17.600000 0.000000 0.000000
vt 0.435267 0.216965
vt 0.435267 0.000012
vt 1.000000 -0.000065
vt 0.435169 0.217059
vt 0.435169 0.701104
vt 0.000098 0.701027
vt 0.999902 0.216983
vt 0.999902 0.701027
vt 1.000000 0.216889
vt 1.000000 0.700933
vt 0.435267 0.701010
vt 1.000000 0.920654
vt 0.435267 0.920731
vt 0.999902 0.920749
vt 0.435169 0.920825
vt 0.000195 0.700933
vt 0.000195 0.216889
vt 0.999902 0.000030
vt 0.000098 0.216983
vt 0.435169 0.000106
vn 0.000000 0.000000 -1.000000
vn -1.000000 0.000000 0.000000
vn 0.000000 -1.000000 0.000000
vn 0.000000 1.000000 0.000000
vn 0.000000 0.000000 1.000000
vn 1.000000 0.000000 0.000000
g Plane_Plane_models/mapobjects/vega/box/box01
usemtl models/mapobjects/vega/box/box01
s off
f 3/1/1 12/2/1 11/3/1
f 2/4/2 6/5/2 5/6/2
f 4/7/3 8/8/3 6/5/3
f 1/9/4 5/10/4 7/11/4
f 5/10/5 9/12/5 10/13/5
f 8/8/5 10/14/5 9/15/5
f 7/11/6 8/16/6 4/17/6
f 12/18/1 4/7/1 2/4/1
f 1/9/1 3/1/1 11/3/1
f 1/19/2 2/4/2 5/6/2
f 2/4/3 4/7/3 6/5/3
f 3/1/4 1/9/4 7/11/4
f 7/11/5 5/10/5 10/13/5
f 6/5/5 8/8/5 9/15/5
f 3/1/6 7/11/6 4/17/6
f 11/20/1 12/18/1 2/4/1
